<?xml version="1.0" encoding="UTF-8"?>
<!DOCTYPE svg PUBLIC "-//W3C//DTD SVG 1.1//EN" "http://www.w3.org/Graphics/SVG/1.1/DTD/svg11.dtd">
<!-- Creator: CorelDRAW 2019 (64-Bit) -->
<svg xmlns="http://www.w3.org/2000/svg" xml:space="preserve" width="91.546mm" height="22.2398mm" version="1.1" style="shape-rendering:geometricPrecision; text-rendering:geometricPrecision; image-rendering:optimizeQuality; fill-rule:evenodd; clip-rule:evenodd"
viewBox="0 0 9154.6 2223.98"
 xmlns:xlink="http://www.w3.org/1999/xlink">
 <defs>
  <style type="text/css">
   <![CDATA[
    .fil1 {fill:none}
    .fil3 {fill:#B2B3B3}
    .fil2 {fill:#FA9A9E}
    .fil0 {fill:#FBFD90}
   ]]>
  </style>
 </defs>
 <g id="Слой_x0020_1">
  <metadata id="CorelCorpID_0Corel-Layer"/>
  <g id="_2054157695072">
   <path class="fil0" d="M-4.75 2126.37c1208.85,-483.23 3090.09,-400.75 4362.15,-230.81 1265.15,169.01 2859.54,217.66 4121.09,-46.65 213.39,-44.7 450.93,-98 668.76,-145.86 -1471.85,457.18 -3288.61,476.53 -4798.12,266.33 -1345.27,-187.33 -3044.82,-269.44 -4353.88,156.99z"/>
  </g>
  <path class="fil1" d="M-4.75 2126.37c615.11,-288.97 2084.42,-324.59 2733.33,-330.72 752.14,-7.1 845.37,30.28 1624.68,136.82 438.82,59.99 880.65,118.7 1566.68,122.28 815.93,4.25 1120.7,28.76 2192.82,-115.34 267.63,-35.97 461.25,-110.88 763.16,-169.27 96.91,-18.74 94.29,-20.81 271.33,-67.09"/>
  <g id="_2054157693472">
   <path class="fil2" d="M-2.16 2073.97c1208.85,-483.23 3090.09,-400.75 4362.15,-230.81 1265.15,169.01 2859.54,217.66 4121.09,-46.65 213.39,-44.7 450.93,-98 668.76,-145.86 -1471.86,457.18 -3288.61,476.53 -4798.12,266.33 -1345.28,-187.33 -3044.82,-269.44 -4353.88,156.99z"/>
  </g>
  <path class="fil1" d="M-2.16 2073.97c615.1,-288.97 2084.42,-324.59 2733.33,-330.72 752.14,-7.1 845.37,30.28 1624.68,136.82 438.82,59.99 880.65,118.7 1566.68,122.28 815.93,4.25 1120.7,28.76 2192.82,-115.34 267.63,-35.97 461.25,-110.88 763.15,-169.27 96.92,-18.74 94.3,-20.81 271.34,-67.09"/>
  <polygon class="fil3" points="160.32,185.6 160.32,1603.77 752.99,1603.77 752.99,1497.94 308.49,1497.94 308.49,185.6 "/>
  <path class="fil3" d="M6577.06 796.4c-2.09,-6.34 -5.67,-15.1 -8.29,-22.95 -77.04,-230.11 -516.25,-21.57 -515.6,-21.25 0.64,0.32 -86.65,110.11 47.62,94.91 287.73,-169.99 330.07,-16.54 330.07,-16.54 0,0 2.64,259.29 -0.01,259.29 -2.65,0 -221.6,-24.43 -310.87,50.27 -116.68,97.62 -152.96,194.87 -126.33,296 14.44,54.82 42.16,104.92 57.31,135.54 18.14,36.64 64.43,28.12 66.96,28.16l217.69 3.99c171.64,-176.94 143.86,7.94 143.86,7.94 0,0 141.97,5.02 185.25,3.64 25.24,-0.8 47.06,-44.03 59.63,-75.57 8.32,-20.89 -0.04,-1.33 -57.32,-9.76 -108.67,-16 -90.62,-72.46 -90.62,-77.05l0.65 -656.62zm-144.67 371.32c0,0 -210.34,-23.82 -277.81,80.69 -67.47,104.51 -1.65,208.2 15.54,246.57 17.19,38.37 264.92,-41.51 264.92,-41.51l-2.65 -285.75z"/>
  <path class="fil3" d="M1418.2 795.88c-2.09,-6.34 -5.67,-15.1 -8.29,-22.95 -77.04,-230.11 -516.25,-21.57 -515.6,-21.25 0.64,0.32 -86.65,110.11 47.62,94.91 287.73,-169.99 330.07,-16.54 330.07,-16.54 0,0 2.64,259.29 -0.01,259.29 -2.65,0 -221.6,-24.43 -310.87,50.27 -116.68,97.62 -152.96,194.87 -126.33,296 14.44,54.82 42.16,104.92 57.31,135.54 18.14,36.64 64.43,28.12 66.96,28.16l217.69 3.99c171.64,-176.94 143.86,7.94 143.86,7.94 0,0 141.97,5.02 185.25,3.64 25.24,-0.8 47.06,-44.03 59.63,-75.57 8.32,-20.89 -0.04,-1.33 -57.32,-9.76 -108.67,-16 -90.62,-72.46 -90.62,-77.05l0.65 -656.62zm-144.67 371.32c0,0 -210.34,-23.82 -277.81,80.69 -67.47,104.51 -1.65,208.2 15.54,246.57 17.19,38.37 264.92,-41.51 264.92,-41.51l-2.65 -285.75z"/>
  <path class="fil3" d="M8105.95 651.78c0,0 -613.84,-51.6 -549.02,563.57 64.82,615.17 559.61,306.92 559.61,306.92l30.42 91.28 107.16 -1.32 2.68 -1596.81 -137.58 47.62 -13.27 588.74zm7.97 111.41l-259.29 -1.65c0,0 -93.93,64.17 -129.65,194.8 -35.72,130.63 -37.05,311.88 100.54,514.28 100.54,82.02 283.1,-21.16 285.75,-26.45 2.76,-5.29 2.65,-680.98 2.65,-680.98z"/>
  <path class="fil3" d="M2099.99 755.19l-259.29 -1.65c0,0 -93.93,64.17 -129.65,194.8 -35.72,130.63 -37.05,311.88 100.54,514.28 100.54,82.02 283.1,-21.16 285.75,-26.45 2.76,-5.29 2.65,-680.98 2.65,-680.98zm-7.97 -111.41c0,0 -613.84,-51.6 -549.02,563.57 64.82,615.17 559.61,306.92 559.61,306.92l30.42 91.28 107.16 -1.32 2.68 -1596.81 -137.58 47.62 -13.27 588.74z"/>
  <path class="fil3" d="M2289.57 762.05l2.62 -0.44 64.45 -0.14 291.04 809.63 22.49 66.14c0,0 -83.35,129 -188.52,256.16 -105.16,127.16 -208.08,251.14 -320.81,246.56 -89.19,-3.62 -34.26,63.65 -16.39,71.73 31.71,14.34 25.03,18.91 77.07,19.59 103.18,1.34 124.35,-7.94 124.35,-7.94 0,0 635.38,-513.97 677.71,-1561.72l-0.08 -1.74 -137.87 -0.24c0,0 8.96,514.77 -131.32,771.51l-1.28 -1.16c0,0 -196.85,-762.87 -264.29,-766.37 -100.5,-5.21 -181.24,2.64 -181.24,2.64 0,0 -76.14,11.12 -17.93,95.79z"/>
  <g>
   <path class="fil3" d="M3690.6 1016.46c-4.02,1 -144.45,-256.42 29.43,-282.12 169.99,-25.12 123.63,243.87 -29.43,282.12zm243 347.2c0,0 99.74,-186.64 67.81,-303.45l2.48 -1.32 104.11 0.2 1.39 6.08c31.64,161.72 -115.92,364.8 -115.92,364.8l-59.87 -66.31zm-63.18 69.67c0,0 -108.62,105.78 -184.03,74.03 -75.41,-31.75 -201.86,-181.82 -30.67,-356.18l214.7 282.15zm-269.74 -359.47l-0.38 -0.41c-32.84,-55.99 -54.53,-131 -57.75,-189.51 -15.75,-285.74 246.06,-220.94 214.31,-224.9 -31.75,-3.96 177.28,2.64 166.69,190.5 -10.59,187.86 -195.8,214.33 -193.15,235.49 1.44,11.49 95.72,154.82 202.32,278.34 19.97,23.13 40.38,45.58 60.68,66.33 70.94,72.48 140.73,124.34 186.79,113.06 129.65,-31.75 7.94,74.08 7.94,74.08l-166.69 -5.29c-0.65,-0.05 -49.97,-57.07 -92.78,-106.72 -26.87,-31.18 -49.75,-60.66 -58.23,-71.63 -62.03,-80.25 -152.62,-178.35 -215.92,-281.34 -17.01,-27.67 -37.8,-52.03 -53.83,-78zm-0.34 -0.47c0,0 -186.47,100.59 -170.6,308.29 15.87,207.7 144.2,223.58 144.2,223.58l191.82 -3.97c0,0 78.26,0.99 160.6,-94.83l-326.02 -433.07z"/>
  </g>
  <path class="fil3" d="M4830.37 307.62l0 470.96 -1.33 29.11 256.65 0c0,0 148.17,-93.93 116.42,-288.4 -31.75,-194.47 -111.79,-210.36 -111.79,-210.36l-259.95 -1.31zm2.56 629.1l0 555.63 -1.32 15.22 299.64 0.66c0,0 107.84,-43.66 106.52,-161.4 -1.32,-117.74 -6.62,-246.06 -6.62,-246.06 0,0 -18.52,-123.04 -153.46,-154.79 -134.94,-31.75 -244.76,-9.26 -244.76,-9.26zm-158.09 -739.99l0 1407.59 513.29 0c0,0 227.54,-84.67 227.54,-365.13 0,-280.46 -170.48,-329.47 -264.58,-402.17 -6.86,-5.3 49.6,-10.13 122.56,-63.81 81.31,-59.82 95.97,-196.11 89.11,-280.15 -14.39,-176.19 -84.49,-269.51 -179.26,-281.78 -64.91,-24.89 -508.66,-14.55 -508.66,-14.55z"/>
  <path class="fil3" d="M5549.95 1595.59l-11.94 -922.11 158.76 0 5.29 129.64c0,0 60.85,-97.89 68.79,-101.86 7.94,-3.97 50.28,-37.04 62.18,-39.69 11.9,-2.65 64.82,-15.88 64.82,-15.88l52.92 5.3c0,0 -3.97,58.21 1.32,89.96 5.29,31.75 3.97,92.6 3.97,92.6l-179.92 -2.65 -52.92 29.11 -15.87 25.13 -0.04 666.75 -0.02 42.38 -157.34 1.32z"/>
  <path class="fil3" d="M6750.64 667.13l0 930.02 -1.33 18.52 154.78 0 5.27 -752.74c0,0 142.88,-104.52 250.04,-88.64 107.16,15.88 92.61,55.56 99.22,67.47 6.61,11.91 1.31,738.19 1.31,738.19l0 31.75 177.27 -2.65 0 -780.52c0,0 -13.23,-145.52 -190.5,-179.92 -177.27,-34.4 -332.06,102.53 -332.06,102.53l0.66 -85.99 -164.66 1.98z"/>
  <path class="fil3" d="M8435.28 1413.93l-68.79 111.13c0,0 71.44,115.08 261.94,93.92 190.5,-21.16 226.22,-71.44 226.22,-71.44 0,0 67.47,-55.55 87.31,-171.97 19.84,-116.42 -21.17,-168.02 -21.17,-168.02 0,0 -50.27,-93.91 -145.52,-144.19 -95.25,-50.28 -229.63,-92.72 -243.42,-123.04 -13.23,-29.1 -41,-63.5 -2.64,-137.58 38.36,-74.08 306.92,18.52 306.92,18.52l44.97 -3.97 -3.98 -187.88c0,0 -171.99,13.23 -267.23,13.23 -95.24,0 -172.11,72.48 -194.47,121.72 -22.36,49.24 -39.01,168.15 -31.74,197.12 5.78,23.04 -25.23,125.96 195.3,220.32 61.66,26.39 115.44,61.11 189.66,95.84 19.49,9.11 17.2,174.64 17.2,174.64 0,0 -58.87,56.88 -112.45,52.91 -60.85,-34.4 -238.11,-91.26 -238.11,-91.26z"/>
 </g>
</svg>
